<?xml version="1.0" encoding="utf-8"?>
<!-- Generator: Adobe Illustrator 16.2.0, SVG Export Plug-In . SVG Version: 6.00 Build 0)  -->
<!DOCTYPE svg PUBLIC "-//W3C//DTD SVG 1.1//EN" "http://www.w3.org/Graphics/SVG/1.1/DTD/svg11.dtd">
<svg version="1.1" id="Layer_1" xmlns="http://www.w3.org/2000/svg"  x="0px" y="0px"
	 width="548.059px" height="121.364px" viewBox="0 0 548.059 121.364" enable-background="new 0 0 548.059 121.364"
	 xml:space="preserve">
<path fill-rule="evenodd" clip-rule="evenodd" fill="#FFFFFF" d="M76.835,43.557c0,2.73-0.116,4.69-0.385,5.882
	c-0.538,2.308-1.693,4.422-3.463,6.342c-1.886,2.156-4.926,3.654-9.16,4.461c-2.54,0.5-5.696,0.768-9.314,0.768
	c-0.962,0-1.577,0-1.846,0h-26.98c-3.387,0-6.35-0.23-8.928-0.649c-2.54-0.427-4.657-1.156-6.197-2.193
	c-1.54-1.039-2.809-2.424-3.656-4.231c-0.848-1.767-1.309-3.42-1.309-4.958v-7.919h17.357v1.769c0,0.922,0.038,1.614,0.154,2.037
	c0.115,0.423,0.385,0.962,0.847,1.614c0.5,0.616,1.116,1.039,1.924,1.232c0.809,0.191,1.885,0.306,3.117,0.306H52.55
	c1.424,0,2.579-0.115,3.386-0.23c0.848-0.153,1.694-0.537,2.618-1.152c0.616-0.423,1.001-0.885,1.232-1.423
	c0.23-0.539,0.308-1.115,0.308-1.884v-1.422c0-0.693-0.23-1.461-0.654-2.192c-0.462-0.729-1.039-1.307-1.617-1.614
	c-0.616-0.346-1.462-0.576-2.462-0.653c-1.04-0.115-2.386-0.154-4.002-0.154l-26.633-0.615c-3.31,0-6.236-0.231-8.736-0.769
	c-2.502-0.539-4.581-1.422-6.082-2.73c-1.5-1.307-2.693-2.96-3.579-5.036c-0.846-2.077-1.27-4.307-1.27-6.767v-3.076
	c0-3.421,0.385-6.228,1.193-8.419c1.078-2.96,2.809-5.113,5.271-6.535c2.426-1.462,5.08-2.346,7.928-2.769
	C22.3,0.192,26.572,0,32.345,0h19.013c4.463,0,8.466,0.461,12.006,1.306c4.85,1.192,7.967,3.038,9.391,5.537
	c0.924,1.576,1.501,2.999,1.848,4.307c0.307,1.307,0.462,2.844,0.462,4.728v3.575H57.978v-2.384c0-0.998-0.54-1.96-1.54-2.768
	c-0.463-0.385-0.962-0.615-1.501-0.73c-0.539-0.116-1.232-0.153-1.963-0.153h-23.67c-1.231,0-2.116,0-2.654,0.076
	c-0.541,0.039-1.117,0.309-1.771,0.808c-1.385,1.038-2.078,2.23-2.078,3.691v1.115c0,1.538,0.462,2.73,1.424,3.575
	c0.423,0.346,0.847,0.578,1.309,0.654c0.423,0.115,1.039,0.154,1.694,0.154c0.345,0,0.614,0,0.769,0l29.982,0.306
	c2.771,0,5.271,0.193,7.543,0.616c2.27,0.423,4.078,1.039,5.388,1.884c2.193,1.383,3.772,3.46,4.772,6.227
	c0.769,2.27,1.154,4.999,1.154,8.267V43.557L76.835,43.557z"/>
<path fill-rule="evenodd" clip-rule="evenodd" fill="#FFFFFF" d="M105.622,61.01c-6.465,0-12.931,0-19.436,0
	c0-20.336,0-40.673,0-61.01c6.505,0,12.97,0,19.436,0C105.622,20.337,105.622,40.674,105.622,61.01L105.622,61.01z"/>
<path fill-rule="evenodd" clip-rule="evenodd" fill="#FFFFFF" d="M192.677,44.865c0,3.192-0.384,5.652-1.231,7.536
	c-1.039,2.27-2.887,4.229-5.542,5.845c-1.732,1.151-4.311,1.922-7.697,2.345c-3.387,0.42-7.159,0.652-11.354,0.652h-26.825
	c-4.157,0-7.543-0.344-10.083-1.037c-3.08-0.77-6.08-2.23-9.005-4.423c-2.385-1.845-4.042-5.189-4.85-10.07
	c-0.461-2.654-0.654-6.382-0.654-11.266v-10.11c0-5.612,0.578-10.111,1.771-13.455c1.039-2.961,2.617-5.229,4.772-6.844
	c2.193-1.615,5.542-2.768,10.16-3.46C134.911,0.192,137.913,0,141.145,0h29.403c1.732,0,4.002,0.192,6.658,0.538
	c4.042,0.499,6.736,1.23,8.122,2.191c2.771,1.884,4.657,3.883,5.695,6.113c0.848,1.922,1.309,4.536,1.309,7.842v3.923h-17.896
	c0.078-0.731,0.115-1.191,0.115-1.461c0-1.191-0.577-2.23-1.731-3.038c-0.731-0.576-1.849-1-3.311-1.269
	c-1.5-0.307-3.117-0.46-4.81-0.46h-19.436c-0.615,0-1.155,0-1.616,0c-1.232,0-2.424,0.077-3.465,0.23
	c-1.039,0.192-1.924,0.499-2.731,0.999c-2.193,1.461-3.271,3.538-3.271,6.306v14.494c0,1.807,0.115,3.229,0.384,4.307
	c0.309,1.114,0.885,2.191,1.809,3.305c0.617,0.731,1.732,1.308,3.272,1.846c1.538,0.539,2.886,0.809,3.964,0.809h23.553
	c1.541,0,2.771-0.194,3.772-0.54c1.039-0.346,1.886-0.962,2.655-1.884c0.577-0.692,1-1.421,1.271-2.115
	c0.269-0.729,0.385-1.537,0.385-2.575c0-0.538,0-0.961-0.038-1.27h-23.515V25.643h40.986V44.865L192.677,44.865z"/>
<path fill-rule="evenodd" clip-rule="evenodd" fill="#FFFFFF" d="M283.197,61.01c-9.506,0-18.935,0-28.403,0
	c-11.814-14.685-23.591-29.409-35.406-44.095c0,14.687,0,29.411,0,44.095c-6.312,0-12.701,0-19.052,0c0-20.336,0-40.673,0-61.01
	c9.66,0,19.319,0,28.98,0c11.931,14.878,23.862,29.794,35.792,44.672c0-14.878,0-29.794,0-44.672c6.042,0,12.046,0,18.088,0
	C283.197,20.337,283.197,40.674,283.197,61.01L283.197,61.01z"/>
<path fill-rule="evenodd" clip-rule="evenodd" fill="#FFFFFF" d="M312.1,61.01c-6.465,0-12.931,0-19.436,0
	c0-20.336,0-40.673,0-61.01c6.505,0,12.97,0,19.436,0C312.1,20.337,312.1,40.674,312.1,61.01L312.1,61.01z"/>
<path fill-rule="evenodd" clip-rule="evenodd" fill="#FFFFFF" d="M399.193,44.942c0,2.959-0.423,5.344-1.27,7.15
	c-1.039,2.231-2.889,4.189-5.542,5.882c-2.041,1.23-4.195,2.115-6.464,2.576c-1.734,0.348-3.969,0.537-6.66,0.537
	c-0.308,0-0.539,0-0.693,0c-0.922,0-1.771,0-2.503,0c-0.731,0-1.423,0-2,0c-0.346,0-0.578,0-0.733,0h-26.825
	c-4.27,0-7.658-0.308-10.083-0.882c-3.078-0.77-6.08-2.23-8.967-4.345c-2.426-1.806-4.04-5.113-4.811-10.034
	c-0.461-2.653-0.654-6.421-0.654-11.265v-9.727c0-5.036,0.384-9.034,1.115-11.996c0.965-3.921,2.771-6.842,5.274-8.727
	c2.23-1.691,5.619-2.845,10.237-3.537C341.387,0.192,344.389,0,347.622,0h28.789c2.039,0,4.195,0.154,6.581,0.423
	c4.001,0.46,6.656,1.152,8.041,2.075c2.812,1.923,4.734,4.229,5.813,6.881c0.924,2.23,1.385,5.191,1.385,8.843v3.921h-17.894
	c0.036-0.23,0.036-0.615,0.036-1.077c0-0.922-0.153-1.768-0.423-2.652c-0.31-0.846-0.691-1.615-1.192-2.269
	c-0.461-0.691-1.385-1.192-2.732-1.422c-1.386-0.23-3.003-0.346-4.697-0.346h-19.588c-0.614,0-1.153,0-1.616,0
	c-1.233,0-2.386,0.077-3.427,0.23c-1.04,0.192-1.961,0.499-2.73,0.999c-2.235,1.461-3.312,3.576-3.312,6.306v14.455
	c0,1.845,0.117,3.268,0.425,4.306c0.269,1.038,0.845,2.154,1.808,3.305c0.654,0.771,1.732,1.423,3.233,1.963
	c1.5,0.537,2.849,0.807,3.964,0.807h21.745c1.347,0,2.62-0.191,3.849-0.539c1.231-0.384,2.195-0.845,2.964-1.421
	c1.846-1.423,2.732-3.346,2.732-5.767c0-0.308,0-0.692-0.115-1.27h17.934V44.942L399.193,44.942z"/>
<path fill-rule="evenodd" clip-rule="evenodd" fill="#FFFFFF" d="M490.598,61.01c-7.004,0-14.009,0-21.013,0
	c-2.001-3.612-4.042-7.226-6.118-10.88c-12.74,0-25.518,0-38.257,0c-1.886,3.654-3.77,7.269-5.657,10.88c-6.811,0-13.624,0-20.436,0
	C410.354,40.674,421.631,20.337,432.869,0c8.045,0,16.048,0,24.053,0C468.16,20.337,479.398,40.674,490.598,61.01L490.598,61.01z
	 M456.269,37.33c-3.964-7.536-8.005-15.032-11.969-22.568c-4.157,7.536-8.352,15.032-12.508,22.568
	C439.99,37.33,448.148,37.33,456.269,37.33L456.269,37.33z"/>
<path fill-rule="evenodd" clip-rule="evenodd" fill="#FFFFFF" d="M548.059,14.378c-8.931,0-17.858,0-26.787,0
	c0,15.531,0,31.063,0,46.632c-6.311,0-12.623,0-18.935,0c0-15.569,0-31.101,0-46.632c-8.774,0-17.626,0-26.44,0
	c0-4.806,0-9.612,0-14.378c24.054,0,48.107,0,72.162,0C548.059,4.767,548.059,9.572,548.059,14.378L548.059,14.378z"/>
<g>
	<path fill="#FFFFFF" d="M5.578,110.411c-0.302,0-0.453-0.151-0.453-0.452V76.695c0-0.302,0.151-0.452,0.402-0.452h9.698
		c7.838,0,10.1,2.964,10.1,6.833v20.501c0,3.869-2.261,6.833-10.1,6.833H5.578z M6.833,77.75v31.153h8.392
		c6.481,0,8.391-2.312,8.391-5.527V83.278c0-3.216-1.91-5.527-8.391-5.527H6.833z"/>
	<path fill="#FFFFFF" d="M36.124,80.615c0,0.301-0.15,0.452-0.452,0.452h-0.804c-0.302,0-0.402-0.151-0.402-0.452v-4.874
		c0-0.302,0.101-0.452,0.402-0.452h0.804c0.302,0,0.452,0.15,0.452,0.452V80.615z M36.124,109.959c0,0.301-0.15,0.452-0.452,0.452
		h-0.804c-0.302,0-0.402-0.151-0.402-0.452V86.192c0-0.301,0.101-0.452,0.402-0.452h0.804c0.302,0,0.452,0.151,0.452,0.452V109.959z
		"/>
	<path fill="#FFFFFF" d="M44.615,104.934V91.217c0-3.467,2.06-5.879,6.783-5.879c4.372,0,7.437,1.959,8.894,3.166l0.101-2.312
		c0-0.301,0.151-0.452,0.452-0.452h0.653c0.302,0,0.452,0.151,0.452,0.452v28.842c0,3.467-1.959,5.879-8.592,5.879h-6.683
		c-0.302,0-0.452-0.1-0.452-0.402v-0.603c0-0.301,0.15-0.452,0.452-0.452h6.683c5.427,0,6.934-1.909,6.934-4.522v-7.186
		c-1.507,1.156-4.522,3.065-8.894,3.065C46.675,110.813,44.615,108.351,44.615,104.934z M46.273,104.733
		c0,2.563,1.658,4.572,5.426,4.572c4.422,0,7.437-2.261,8.592-3.166V90.061c-1.155-0.955-4.17-3.216-8.592-3.216
		c-3.769,0-5.426,2.01-5.426,4.522V104.733z"/>
	<path fill="#FFFFFF" d="M72.75,80.615c0,0.301-0.15,0.452-0.452,0.452h-0.804c-0.302,0-0.402-0.151-0.402-0.452v-4.874
		c0-0.302,0.101-0.452,0.402-0.452h0.804c0.302,0,0.452,0.15,0.452,0.452V80.615z M72.75,109.959c0,0.301-0.15,0.452-0.452,0.452
		h-0.804c-0.302,0-0.402-0.151-0.402-0.452V86.192c0-0.301,0.101-0.452,0.402-0.452h0.804c0.302,0,0.452,0.151,0.452,0.452V109.959z
		"/>
	<path fill="#FFFFFF" d="M90.637,85.79c0.302,0,0.452,0.151,0.452,0.452v0.553c0,0.302-0.15,0.452-0.452,0.452h-6.281v17.134
		c0,2.663,1.457,4.573,6.884,4.573h0.704c0.301,0,0.452,0.101,0.452,0.452v0.553c0,0.301-0.151,0.452-0.452,0.452h-0.854
		c-6.632,0-8.391-2.362-8.391-5.879V87.247h-3.367c-0.301,0-0.452-0.15-0.452-0.452v-0.452c0-0.302,0.151-0.452,0.452-0.452
		l2.764-0.101h0.603v-5.578c0-0.301,0.101-0.452,0.402-0.452h0.804c0.301,0,0.452,0.151,0.452,0.452v5.578H90.637z"/>
	<path fill="#FFFFFF" d="M98.173,91.217c0-3.467,1.859-5.879,8.441-5.879s8.441,2.412,8.441,5.879v18.742
		c0,0.301-0.151,0.452-0.452,0.452h-0.653c-0.301,0-0.452-0.151-0.452-0.452l-0.101-2.261c-1.457,1.156-4.472,3.115-8.793,3.115
		c-4.723,0-6.784-2.462-6.784-5.728v-2.663c0-3.266,2.01-5.678,5.929-5.678h9.647v-5.427c0-2.613-1.356-4.573-6.783-4.573
		s-6.833,1.91-6.833,4.522v0.904c0,0.352-0.151,0.452-0.452,0.452h-0.704c-0.302,0-0.452-0.101-0.452-0.452V91.217z M113.397,106.19
		v-8.04h-9.396c-3.065,0-4.573,1.859-4.573,4.422v2.361c0,2.563,1.658,4.422,5.427,4.422
		C109.227,109.356,112.242,107.145,113.397,106.19z"/>
	<path fill="#FFFFFF" d="M125.504,109.959c0,0.301-0.15,0.452-0.452,0.452h-0.804c-0.302,0-0.402-0.151-0.402-0.452V75.741
		c0-0.302,0.101-0.452,0.402-0.452h0.804c0.302,0,0.452,0.15,0.452,0.452V109.959z"/>
	<path fill="#FFFFFF" d="M148.967,109.959c0,0.301-0.101,0.452-0.452,0.452h-0.804c-0.302,0-0.453-0.151-0.453-0.452V76.695
		c0-0.302,0.151-0.452,0.453-0.452h0.804c0.352,0,0.452,0.15,0.452,0.452V109.959z"/>
	<path fill="#FFFFFF" d="M173.737,107.698c-1.457,1.156-4.522,3.115-8.894,3.115c-4.723,0-6.783-2.462-6.783-5.879V91.217
		c0-3.467,2.06-5.879,6.783-5.879c4.372,0,7.386,1.959,8.894,3.115V75.741c0-0.302,0.101-0.452,0.402-0.452h0.804
		c0.302,0,0.452,0.15,0.452,0.452v34.218c0,0.301-0.15,0.452-0.452,0.452h-0.653c-0.301,0-0.452-0.151-0.452-0.452L173.737,107.698z
		 M159.718,104.733c0,2.563,1.658,4.572,5.426,4.572c4.422,0,7.437-2.261,8.592-3.166V90.061c-1.155-0.955-4.17-3.216-8.592-3.216
		c-3.769,0-5.426,2.01-5.426,4.522V104.733z"/>
	<path fill="#FFFFFF" d="M201.069,97.498c0,0.302-0.151,0.452-0.402,0.452h-15.074v6.884c0,2.613,1.457,4.573,6.934,4.573
		c5.477,0,6.934-1.959,6.934-4.573v-1.256c0-0.302,0.15-0.452,0.452-0.452h0.703c0.302,0,0.453,0.15,0.453,0.452v1.356
		c0,3.417-1.96,5.879-8.592,5.879c-6.583,0-8.542-2.462-8.542-5.879V91.217c0-3.467,1.959-5.879,8.592-5.879
		c6.582,0,8.542,2.412,8.542,5.879V97.498z M185.593,96.593h13.868v-5.326c0-2.563-1.508-4.522-6.934-4.522
		c-5.427,0-6.934,1.959-6.934,4.522V96.593z"/>
	<path fill="#FFFFFF" d="M210.161,85.74c0.302,0,0.402,0.151,0.402,0.452l0.1,2.312c1.458-1.206,4.522-3.166,8.894-3.166
		c4.723,0,6.833,2.412,6.833,5.778v18.843c0,0.301-0.151,0.452-0.452,0.452h-0.804c-0.301,0-0.402-0.151-0.402-0.452V91.368
		c0-2.613-1.658-4.522-5.477-4.522c-4.421,0-7.386,2.211-8.542,3.166v19.948c0,0.301-0.15,0.452-0.452,0.452h-0.804
		c-0.302,0-0.402-0.151-0.402-0.452V86.192c0-0.301,0.101-0.452,0.402-0.452H210.161z"/>
	<path fill="#FFFFFF" d="M243.975,85.79c0.301,0,0.452,0.151,0.452,0.452v0.553c0,0.302-0.151,0.452-0.452,0.452h-6.281v17.134
		c0,2.663,1.457,4.573,6.884,4.573h0.704c0.301,0,0.452,0.101,0.452,0.452v0.553c0,0.301-0.151,0.452-0.452,0.452h-0.854
		c-6.632,0-8.391-2.362-8.391-5.879V87.247h-3.367c-0.301,0-0.452-0.15-0.452-0.452v-0.452c0-0.302,0.151-0.452,0.452-0.452
		l2.764-0.101h0.603v-5.578c0-0.301,0.101-0.452,0.402-0.452h0.804c0.301,0,0.452,0.151,0.452,0.452v5.578H243.975z"/>
	<path fill="#FFFFFF" d="M253.821,80.615c0,0.301-0.15,0.452-0.452,0.452h-0.804c-0.302,0-0.402-0.151-0.402-0.452v-4.874
		c0-0.302,0.101-0.452,0.402-0.452h0.804c0.302,0,0.452,0.15,0.452,0.452V80.615z M253.821,109.959c0,0.301-0.15,0.452-0.452,0.452
		h-0.804c-0.302,0-0.402-0.151-0.402-0.452V86.192c0-0.301,0.101-0.452,0.402-0.452h0.804c0.302,0,0.452,0.151,0.452,0.452V109.959z
		"/>
	<path fill="#FFFFFF" d="M271.708,85.79c0.301,0,0.452,0.151,0.452,0.452v0.553c0,0.302-0.151,0.452-0.452,0.452h-6.281v17.134
		c0,2.663,1.457,4.573,6.884,4.573h0.704c0.301,0,0.452,0.101,0.452,0.452v0.553c0,0.301-0.151,0.452-0.452,0.452h-0.854
		c-6.632,0-8.391-2.362-8.391-5.879V87.247h-3.367c-0.301,0-0.452-0.15-0.452-0.452v-0.452c0-0.302,0.151-0.452,0.452-0.452
		l2.764-0.101h0.603v-5.578c0-0.301,0.101-0.452,0.402-0.452h0.804c0.301,0,0.452,0.151,0.452,0.452v5.578H271.708z"/>
	<path fill="#FFFFFF" d="M284.821,105.889c0.201,0.603,0.653,2.211,0.653,2.211s0.301-1.407,0.603-2.211l6.783-19.697
		c0.101-0.301,0.251-0.452,0.502-0.452h0.854c0.302,0,0.402,0.201,0.302,0.452l-11.758,34.319c-0.101,0.251-0.251,0.452-0.502,0.452
		h-0.704c-0.301,0-0.402-0.201-0.301-0.452l3.366-10.15l-8.291-24.169c-0.101-0.251,0-0.452,0.301-0.452h0.854
		c0.301,0,0.452,0.151,0.553,0.452L284.821,105.889z"/>
	<path fill="#FFFFFF" d="M312.353,82.675c0-3.869,2.261-6.834,10.05-6.834c7.838,0,10.1,2.965,10.1,6.834v21.305
		c0,3.869-2.261,6.833-10.1,6.833c-7.789,0-10.05-2.964-10.05-6.833V82.675z M330.794,82.875c0-3.216-1.909-5.527-8.391-5.527
		c-6.432,0-8.392,2.311-8.392,5.527v20.903c0,3.216,1.96,5.527,8.392,5.527c6.482,0,8.391-2.312,8.391-5.527V82.875z"/>
	<path fill="#FFFFFF" d="M342.75,85.74c0.302,0,0.402,0.151,0.402,0.452l0.1,2.312c1.458-1.206,4.522-3.166,8.894-3.166
		c4.723,0,6.833,2.412,6.833,5.778v18.843c0,0.301-0.151,0.452-0.452,0.452h-0.804c-0.301,0-0.402-0.151-0.402-0.452V91.368
		c0-2.613-1.658-4.522-5.477-4.522c-4.421,0-7.386,2.211-8.542,3.166v19.948c0,0.301-0.15,0.452-0.452,0.452h-0.804
		c-0.302,0-0.402-0.151-0.402-0.452V86.192c0-0.301,0.101-0.452,0.402-0.452H342.75z"/>
	<path fill="#FFFFFF" d="M380.883,110.411c-0.302,0-0.453-0.151-0.453-0.452V76.695c0-0.302,0.151-0.452,0.402-0.452h9.698
		c7.838,0,10.1,2.964,10.1,6.833v20.501c0,3.869-2.262,6.833-10.1,6.833H380.883z M382.139,77.75v31.153h8.392
		c6.481,0,8.391-2.312,8.391-5.527V83.278c0-3.216-1.909-5.527-8.391-5.527H382.139z"/>
	<path fill="#FFFFFF" d="M426.303,97.498c0,0.302-0.15,0.452-0.401,0.452h-15.074v6.884c0,2.613,1.457,4.573,6.934,4.573
		c5.478,0,6.935-1.959,6.935-4.573v-1.256c0-0.302,0.15-0.452,0.452-0.452h0.703c0.302,0,0.452,0.15,0.452,0.452v1.356
		c0,3.417-1.959,5.879-8.592,5.879c-6.583,0-8.542-2.462-8.542-5.879V91.217c0-3.467,1.959-5.879,8.592-5.879
		c6.583,0,8.542,2.412,8.542,5.879V97.498z M410.828,96.593h13.868v-5.326c0-2.563-1.508-4.522-6.935-4.522
		s-6.934,1.959-6.934,4.522V96.593z"/>
	<path fill="#FFFFFF" d="M435.395,85.74c0.302,0,0.402,0.151,0.402,0.452l0.05,2.261c1.407-1.156,4.271-3.115,8.642-3.115
		c3.518,0,5.578,1.356,6.432,3.417c1.206-1.055,4.171-3.417,8.944-3.417c4.723,0,6.834,2.412,6.834,5.778v18.843
		c0,0.301-0.151,0.452-0.453,0.452h-0.753c-0.353,0-0.452-0.151-0.452-0.452V91.368c0-2.613-1.658-4.522-5.478-4.522
		c-4.623,0-7.386,2.362-8.392,3.266c0.101,0.402,0.151,0.854,0.151,1.256v18.591c0,0.301-0.151,0.452-0.452,0.452h-0.804
		c-0.302,0-0.402-0.151-0.402-0.452V91.368c0-2.613-1.658-4.522-5.477-4.522c-4.371,0-7.185,2.211-8.24,3.166v19.948
		c0,0.301-0.15,0.452-0.452,0.452h-0.804c-0.302,0-0.402-0.151-0.402-0.452V86.192c0-0.301,0.101-0.452,0.402-0.452H435.395z"/>
	<path fill="#FFFFFF" d="M474.885,91.217c0-3.467,1.859-5.879,8.441-5.879c6.583,0,8.442,2.412,8.442,5.879v18.742
		c0,0.301-0.151,0.452-0.452,0.452h-0.653c-0.302,0-0.452-0.151-0.452-0.452l-0.101-2.261c-1.458,1.156-4.473,3.115-8.794,3.115
		c-4.723,0-6.783-2.462-6.783-5.728v-2.663c0-3.266,2.01-5.678,5.93-5.678h9.647v-5.427c0-2.613-1.357-4.573-6.784-4.573
		c-5.426,0-6.833,1.91-6.833,4.522v0.904c0,0.352-0.151,0.452-0.452,0.452h-0.704c-0.301,0-0.452-0.101-0.452-0.452V91.217z
		 M490.11,106.19v-8.04h-9.396c-3.065,0-4.572,1.859-4.572,4.422v2.361c0,2.563,1.658,4.422,5.427,4.422
		C485.939,109.356,488.954,107.145,490.11,106.19z"/>
	<path fill="#FFFFFF" d="M501.664,85.74c0.302,0,0.402,0.151,0.402,0.452l0.101,2.312c1.457-1.206,4.522-3.166,8.894-3.166
		c4.724,0,6.834,2.412,6.834,5.778v18.843c0,0.301-0.151,0.452-0.453,0.452h-0.804c-0.301,0-0.401-0.151-0.401-0.452V91.368
		c0-2.613-1.658-4.522-5.478-4.522c-4.422,0-7.386,2.211-8.542,3.166v19.948c0,0.301-0.15,0.452-0.452,0.452h-0.804
		c-0.302,0-0.402-0.151-0.402-0.452V86.192c0-0.301,0.101-0.452,0.402-0.452H501.664z"/>
	<path fill="#FFFFFF" d="M541.758,107.698c-1.457,1.156-4.522,3.115-8.894,3.115c-4.724,0-6.783-2.462-6.783-5.879V91.217
		c0-3.467,2.06-5.879,6.783-5.879c4.371,0,7.387,1.959,8.894,3.115V75.741c0-0.302,0.101-0.452,0.402-0.452h0.804
		c0.302,0,0.452,0.15,0.452,0.452v34.218c0,0.301-0.15,0.452-0.452,0.452h-0.653c-0.302,0-0.452-0.151-0.452-0.452L541.758,107.698z
		 M527.739,104.733c0,2.563,1.658,4.572,5.427,4.572c4.422,0,7.437-2.261,8.592-3.166V90.061c-1.155-0.955-4.17-3.216-8.592-3.216
		c-3.769,0-5.427,2.01-5.427,4.522V104.733z"/>
</g>
<g>
</g>
<g>
</g>
<g>
</g>
<g>
</g>
<g>
</g>
<g>
</g>
</svg>
